#!OML:ASF F:\VICON\USERDATA\INSTALL\rory3\rory3.ASF
:FULLY-SPECIFIED
:DEGREES
281
root 0.00641575 15.7812 6.93172 -177.538 -4.07224 -170.968
lowerback 2.58778 2.36129 7.00895
upperback 1.1734 3.05925 3.5623
thorax -0.0552029 1.42907 -0.322974
lowerneck -9.55817 -0.999404 -6.75623
upperneck 28.077 -3.33486 4.42904
head 10.7458 -2.462 2.22501
rclavicle 1.59028e-015 9.93923e-015
rhumerus -341.066 38.3092 263.155
rradius 44.1164
rwrist -39.1738
rhand -11.9843 1.21871
rfingers 7.12502
rthumb 14.0721 -28.2849
lclavicle 1.59028e-015 9.93923e-015
lhumerus 71.6994 -56.2628 45.7303
lradius 58.5781
lwrist -30.1677
lhand -11.8469 21.8761
lfingers 7.12502
lthumb 14.2045 51.3704
rfemur -18.5875 0.182562 40.1305
rtibia 51.6465
rfoot -29.1243 -29.857
rtoes 16.1667
lfemur -57.437 -7.105 -8.18633
ltibia 42.5107
lfoot -26.502 22.4321
ltoes 44.0871
282
root 0.00254436 15.8174 6.73537 -177.008 -3.7944 -171.697
lowerback 2.41595 2.53437 6.00902
upperback 0.427767 3.36095 3.2683
thorax -0.757032 1.57772 -0.0934842
lowerneck -9.31882 -0.996905 -6.69894
upperneck 28.5526 -3.57889 4.70468
head 10.8956 -2.58713 2.28439
rclavicle 1.75924e-014 5.46658e-014
rhumerus -339.573 41.7472 267.529
rradius 46.8187
rwrist -28.8362
rhand -11.7576 4.98004
rfingers 7.12502
rthumb 14.2905 -24.5082
lclavicle 1.75924e-014 5.46658e-014
lhumerus 74.6763 -55.5431 40.264
lradius 62.2254
lwrist -34.1951
lhand -11.9609 23.764
lfingers 7.12502
lthumb 14.0946 53.266
rfemur -18.0523 0.751714 39.3457
rtibia 51.3174
rfoot -29.3784 -29.2631
rtoes 16.4127
lfemur -57.1805 -6.27854 -9.57957
ltibia 42.085
lfoot -27.0591 23.4219
ltoes 44.2577
283
root -0.000696535 15.8508 6.52536 -176.498 -3.58078 -172.211
lowerback 2.67353 2.78269 5.54787
upperback -0.778203 3.81925 2.73519
thorax -2.12167 1.78322 -0.446491
lowerneck -8.29811 -0.950643 -6.47098
upperneck 29.0447 -4.02059 5.22009
head 10.9107 -2.80524 2.38071
rclavicle -2.21831e-014 1.2921e-014
rhumerus -339.548 43.5665 270.505
rradius 49.2151
rwrist -16.3498
rhand -12.2261 9.2283
rfingers 7.12502
rthumb 13.8391 -20.2913
lclavicle -2.21831e-014 1.2921e-014
lhumerus 77.1364 -55.4971 34.738
lradius 65.7603
lwrist -36.2731
lhand -13.7019 25.2994
lfingers 7.12502
lthumb 12.4166 54.9106
rfemur -17.3392 1.32653 38.8101
rtibia 50.8464
rfoot -29.1677 -28.7018
rtoes 16.4291
lfemur -56.9765 -4.82217 -11.2993
ltibia 41.7332
lfoot -26.3907 24.797
ltoes 44.4291
284
root 0.000366849 15.9159 6.30976 -176.199 -3.28596 -172.642
lowerback 2.2486 2.96132 4.74338
upperback -1.23496 4.03854 2.56322
thorax -2.38683 1.90072 -0.178204
lowerneck -7.85748 -0.940913 -6.43643
upperneck 29.1594 -4.20467 5.48332
head 10.8828 -2.89427 2.44989
rclavicle 1.95368e-014 3.47873e-015
rhumerus -338.203 45.8162 274.972
rradius 51.7826
rwrist -5.13407
rhand -14.6767 14.2872
rfingers 7.12502
rthumb 11.4765 -15.3787
lclavicle 1.95368e-014 3.47873e-015
lhumerus 78.9377 -54.184 30.0729
lradius 68.6492
lwrist -37.4401
lhand -16.5845 25.8914
lfingers 7.12502
lthumb 9.63625 55.651
rfemur -16.3546 1.7832 38.3627
rtibia 50.2727
rfoot -28.0253 -28.7423
rtoes 15.1
lfemur -56.4286 -4.05769 -12.2828
ltibia 41.5994
lfoot -25.9722 26.1742
ltoes 44.2621
285
root -0.011352 16.0038 6.0984 -175.798 -2.85754 -173.132
lowerback 1.42756 3.16952 3.91911
upperback -1.47384 4.26057 2.41699
thorax -2.2116 2.03121 0.158893
lowerneck -7.83875 -1.01526 -6.46533
upperneck 29.3065 -4.40075 5.64143
head 10.9534 -2.98403 2.48872
rclavicle -8.01351e-015 -5.26779e-015
rhumerus -336.314 47.53 280.086
rradius 54.2783
rwrist 5.76418
rhand -18.5372 18.8673
rfingers 7.12502
rthumb 7.75183 -10.9706
lclavicle -8.01351e-015 -5.26779e-015
lhumerus 80.0266 -52.4358 25.9834
lradius 71.357
lwrist -38.1966
lhand -19.5705 26.1489
lfingers 7.12502
lthumb 6.75445 56.0211
rfemur -15.5148 2.3055 37.6784
rtibia 49.6209
rfoot -26.8107 -28.3698
rtoes 13.6102
lfemur -55.7713 -4.05581 -12.7338
ltibia 41.5414
lfoot -27.032 25.7858
ltoes 45.772
286
root -0.0201562 16.0929 5.8842 -175.315 -2.41235 -173.788
lowerback 0.613803 3.36586 2.81302
upperback -1.88942 4.47803 2.23219
thorax -2.24613 2.15877 0.609905
lowerneck -7.64445 -1.05466 -6.27823
upperneck 29.6137 -4.61964 5.64497
head 11.0441 -3.10137 2.4305
rclavicle -1.55176e-014 -1.79403e-014
rhumerus -335.04 48.8101 284.768
rradius 56.7169
rwrist 12.5912
rhand -22.8824 23.0037
rfingers 7.12502
rthumb 3.55665 -6.9464
lclavicle -1.55176e-014 -1.79403e-014
lhumerus 80.119 -50.9529 22.7517
lradius 73.6418
lwrist -38.7325
lhand -22.7107 25.2277
lfingers 7.12502
lthumb 3.72247 55.1749
rfemur -14.8988 2.86061 36.7857
rtibia 49.0331
rfoot -25.3938 -27.8694
rtoes 12.0217
lfemur -55.2774 -3.79043 -13.6116
ltibia 41.4366
lfoot -25.0848 27.5737
ltoes 45.8643
287
root -0.028077 16.1847 5.66407 -174.819 -1.97464 -174.276
lowerback -0.0760033 3.47547 1.83313
upperback -2.52911 4.58856 2.05656
thorax -2.5788 2.22286 0.990241
lowerneck -6.9097 -0.912342 -5.87347
upperneck 29.8775 -4.68046 5.57137
head 10.9902 -3.16484 2.32754
rclavicle 5.01242e-015 -8.50426e-015
rhumerus -334.301 50.2647 289.03
rradius 59.5961
rwrist 19.3025
rhand -27.069 23.0067
rfingers 7.12502
rthumb -0.486696 -6.97245
lclavicle 5.01242e-015 -8.50426e-015
lhumerus 79.4392 -49.8745 19.8889
lradius 75.4897
lwrist -39.1027
lhand -26.4199 23.5716
lfingers 7.12502
lthumb 0.140186 53.5513
rfemur -14.3202 3.31075 36.0363
rtibia 48.4474
rfoot -23.9015 -27.243
rtoes 11.0672
lfemur -54.7252 -3.69358 -14.1188
ltibia 41.3844
lfoot -24.3143 27.7814
ltoes 46.7668
288
root -0.0375191 16.2815 5.45839 -174.252 -1.61641 -174.673
lowerback -0.909107 3.67535 1.10052
upperback -2.61043 4.82397 1.89905
thorax -2.2433 2.35738 1.28209
lowerneck -7.96126 -1.06229 -6.10893
upperneck 30.369 -4.90017 5.88763
head 11.4237 -3.22769 2.45061
rclavicle 3.98396e-014 -4.91992e-015
rhumerus -332.308 50.6005 294.557
rradius 62.0918
rwrist 24.9089
rhand -30.4175 22.8688
rfingers 7.12502
rthumb -3.72063 -7.07848
lclavicle 3.98396e-014 -4.91992e-015
lhumerus 79.5106 -47.6967 16.5456
lradius 77.431
lwrist -39.2645
lhand -30.1335 21.661
lfingers 7.12502
lthumb -3.44636 51.6129
rfemur -13.9351 3.54597 35.3896
rtibia 47.9016
rfoot -21.9717 -26.8824
rtoes 9.19192
lfemur -54.3547 -3.73724 -14.4301
ltibia 41.3277
lfoot -21.4711 29.6803
ltoes 45.4401
289
root -0.058298 16.3901 5.22908 -173.822 -0.607166 -174.91
lowerback -1.75518 4.04024 0.546097
upperback -2.8236 5.28156 1.79359
thorax -2.03737 2.59184 1.52907
lowerneck -8.42215 -1.10004 -6.28525
upperneck 30.8732 -5.04729 6.09384
head 11.7386 -3.30276 2.5356
rclavicle 5.18641e-014 7.30534e-015
rhumerus -331.671 50.6103 298.928
rradius 64.098
rwrist 29.4746
rhand -34.0934 26.4907
rfingers 7.12502
rthumb -7.2697 -3.36438
lclavicle 5.18641e-014 7.30534e-015
lhumerus 78.6329 -46.042 13.8628
lradius 79.248
lwrist -39.7701
lhand -32.9501 19.7914
lfingers 7.12502
lthumb -6.166 49.6817
rfemur -13.3007 4.01593 34.7345
rtibia 47.3282
rfoot -19.6069 -26.0432
rtoes 6.37928
lfemur -53.5833 -4.29519 -13.9313
ltibia 41.3541
lfoot -23.589 28.3801
ltoes 46.6438
